<svg xmlns="http://www.w3.org/2000/svg" width="16" height="15.2" viewBox="0 0 16 15.2">
  <path id="路径_407" data-name="路径 407" d="M67.111,97.671l2.68-1.085.6-.242.6.242,2.68,1.084-.08-2.964-.016-.587.368-.457,1.718-2.141L72.9,90.683l-.534-.162-.317-.458-1.654-2.385-1.652,2.385-.317.458-.534.162-2.767.838,1.718,2.14.368.457-.016.587-.079,2.965m8.224,2.4-4.944-2-4.944,2,.144-5.407-3.2-3.987,5.033-1.524,2.968-4.282,2.969,4.282,5.03,1.524-3.2,3.987.145,5.407Z" transform="translate(-62.39 -84.87)" fill="#a5a4bf"/>
</svg>
