<svg xmlns="http://www.w3.org/2000/svg" width="17" height="16.116" viewBox="0 0 17 16.116">
  <g id="组_269" data-name="组 269" transform="translate(-2.06 -30.22)">
    <path id="路径_10" data-name="路径 10" d="M2.8,31.2H15.907a.242.242,0,0,0,.241-.241.237.237,0,0,0-.241-.241H2.8a.242.242,0,0,0-.241.241A.247.247,0,0,0,2.8,31.2Zm0,4.527H8.108a.241.241,0,1,0,0-.482H2.8a.241.241,0,1,0,0,.482Zm0,4.535h3.94a.237.237,0,0,0,.241-.241.242.242,0,0,0-.241-.241H2.8a.241.241,0,0,0,0,.482Zm4.342,4.044H2.8a.242.242,0,0,0-.241.241.247.247,0,0,0,.241.241H7.143a.242.242,0,0,0,.241-.241A.237.237,0,0,0,7.143,44.308Zm6.07-9.166a5.347,5.347,0,1,0,5.347,5.347A5.35,5.35,0,0,0,13.213,35.142Zm0,10.211a4.864,4.864,0,1,1,4.864-4.864A4.866,4.866,0,0,1,13.213,45.353Z" fill="#a5a4bf" stroke="#a5a4bf" stroke-width="1"/>
    <path id="路径_11" data-name="路径 11" d="M672.308,444.692h-3.476v-4.036a.336.336,0,1,0-.673,0v4.372a.337.337,0,0,0,.336.336h3.812a.337.337,0,0,0,.336-.336A.33.33,0,0,0,672.308,444.692Z" transform="translate(-656.185 -403.966)" fill="#a5a4bf" stroke="#a5a4bf" stroke-width="1"/>
  </g>
</svg>
